<?xml version="1.0" encoding="UTF-8" standalone="no"?>
<svg
   xmlns:dc="http://purl.org/dc/elements/1.1/"
   xmlns:cc="http://creativecommons.org/ns#"
   xmlns:rdf="http://www.w3.org/1999/02/22-rdf-syntax-ns#"
   xmlns:svg="http://www.w3.org/2000/svg"
   xmlns="http://www.w3.org/2000/svg"
   xmlns:sodipodi="http://sodipodi.sourceforge.net/DTD/sodipodi-0.dtd"
   xmlns:inkscape="http://www.inkscape.org/namespaces/inkscape"
   viewBox="0 0 1000 182.3328"
   version="1.1"
   id="svg69"
   sodipodi:docname="Asset 1.svg"
   width="1000"
   height="182.33281"
   inkscape:version="0.92.4 (5da689c313, 2019-01-14)">
  <metadata
     id="metadata73">
    <rdf:RDF>
      <cc:Work
         rdf:about="">
        <dc:format>image/svg+xml</dc:format>
        <dc:type
           rdf:resource="http://purl.org/dc/dcmitype/StillImage" />
        <dc:title>Asset 1</dc:title>
      </cc:Work>
    </rdf:RDF>
  </metadata>
  <sodipodi:namedview
     pagecolor="#ffffff"
     bordercolor="#666666"
     borderopacity="1"
     objecttolerance="10"
     gridtolerance="10"
     guidetolerance="10"
     inkscape:pageopacity="0"
     inkscape:pageshadow="2"
     inkscape:window-width="1021"
     inkscape:window-height="1029"
     id="namedview71"
     showgrid="false"
     fit-margin-top="0"
     fit-margin-left="0"
     fit-margin-right="0"
     fit-margin-bottom="0"
     inkscape:zoom="0.33524563"
     inkscape:cx="751.46012"
     inkscape:cy="148.16177"
     inkscape:window-x="893"
     inkscape:window-y="-14"
     inkscape:window-maximized="0"
     inkscape:current-layer="Artwork" />
  <defs
     id="defs43">
    <style
       id="style41">.cls-1{fill:#cb2026;}</style>
  </defs>
  <title
     id="title45">Asset 1</title>
  <g
     id="Layer_2"
     data-name="Layer 2"
     transform="translate(0,8.3727216)">
    <g
       id="Artwork">
      <path
         class="cls-1"
         d="m 373.49069,50.259678 c -15.27125,-3.228241 -30.95128,-6.634664 -30.95128,-18.92923 0,-13.552323 14.26505,-16.392756 26.4548,-16.392756 a 86.994801,86.994801 0 0 1 36.79985,8.385042 l 1.10054,0.534546 a 0.64984068,0.64984068 0 0 0 0.85947,-0.272514 L 418.74895,4.1314708 a 0.64984068,0.64984068 0 0 0 -0.27251,-0.9118732 l -1.17391,-0.5869529 c -16.5919,-7.5255743 -32.11471,-11.0053663 -48.8219,-11.0053663 -32.42915,0 -53.39175,15.7219519 -53.39175,40.0804966 0,28.058443 23.49908,36.789367 48.86383,42.030018 15.9735,3.30161 31.4439,6.571776 31.4439,19.369445 0,13.824832 -15.34462,16.770082 -28.42529,16.770082 -13.82483,0 -27.6916,-4.04578 -42.40734,-12.367936 L 324.1028,97.23687 a 0.64984068,0.64984068 0 0 0 -0.90139,0.24107 l -11.3827,20.21843 a 0.66032198,0.66032198 0 0 0 0.23059,0.88043 l 0.47166,0.283 a 111.88789,111.88789 0 0 0 54.50277,14.52708 c 35.51065,0 55.87582,-14.74719 55.87582,-40.468306 -0.021,-32.114707 -28.42529,-38.214824 -49.40886,-42.658896 z"
         id="path47"
         inkscape:connector-curvature="0"
         style="fill:#cb2026;stroke-width:1.04813015" />
      <path
         class="cls-1"
         d="m 505.48172,107.78106 a 0.66032198,0.66032198 0 0 0 -0.85947,-0.40877 l -1.44642,0.55551 c -5.69134,2.20107 -9.61135,3.14439 -17.81821,3.14439 -9.5275,0 -15.72195,-5.14632 -15.72195,-13.101628 V 49.494543 h 33.99086 a 0.64984068,0.64984068 0 0 0 0.66032,-0.649841 V 29.234187 a 0.64984068,0.64984068 0 0 0 -0.64984,-0.64984 H 469.67759 V 3.0309342 a 0.64984068,0.64984068 0 0 0 -0.64984,-0.6498407 h -24.88261 a 0.64984068,0.64984068 0 0 0 -0.64984,0.660322 V 28.573865 h -20.31276 a 0.64984068,0.64984068 0 0 0 -0.64984,0.660322 v 19.65244 a 0.64984068,0.64984068 0 0 0 0.66032,0.660322 h 20.31276 v 51.085861 c 0,20.51191 13.72003,32.75407 36.68456,32.75407 13.3427,0 21.14078,-2.77755 29.26379,-6.13156 l 1.54075,-0.66032 a 0.66032198,0.66032198 0 0 0 0.35637,-0.80706 z"
         id="path49"
         inkscape:connector-curvature="0"
         style="fill:#cb2026;stroke-width:1.04813015" />
      <path
         class="cls-1"
         d="M 223.87011,-5.4903638 H 32.062301 C 13.887724,-5.4903638 0,9.2777898 0,27.48381 v 102.5805 a 0.70224719,0.70224719 0 0 0 0.70224719,0.70224 H 25.501006 a 0.70224719,0.70224719 0 0 0 0.702247,-0.70224 V 25.95354 H 229.73964 v 104.11077 a 0.70224719,0.70224719 0 0 0 0.70225,0.70224 h 24.8302 a 0.70224719,0.70224719 0 0 0 0.70225,-0.70224 V 27.48381 c 0,-18.2060202 -13.85628,-32.9741738 -32.10423,-32.9741738 z"
         id="path51"
         inkscape:connector-curvature="0"
         style="fill:#cb2026;stroke-width:1.04813015" />
      <path
         class="cls-1"
         d="m 621.71935,111.63818 h -3.94097 c -4.8738,0 -7.46269,-2.66225 -7.46269,-7.6828 V 63.371786 c 0,-25.155123 -13.62569,-37.418246 -41.79943,-37.418246 a 104.27847,104.27847 0 0 0 -45.06959,9.433171 0.64984068,0.64984068 0 0 0 -0.35637,0.796579 l 6.21542,18.992118 a 0.66032198,0.66032198 0 0 0 0.85946,0.408771 c 13.69906,-5.418833 25.92026,-8.385041 34.45204,-8.385041 9.68472,0 19.51618,1.792302 19.51618,15.040667 v 5.649422 c 0,0 -1.54075,0.115294 -32.63877,2.620325 -31.09802,2.505031 -35.63642,24.285175 -35.63642,33.110428 0,17.52474 13.91917,29.77738 33.8546,29.77738 a 56.777209,56.777209 0 0 0 37.86894,-13.76195 v 0 c 2.32685,4.87381 8.90911,13.04922 26.86358,13.04922 h 7.33691 a 0.64984068,0.64984068 0 0 0 0.66032,-0.64984 v -19.74677 a 0.64984068,0.64984068 0 0 0 -0.72321,-0.64984 z m -37.59643,-9.57991 c -11.52943,8.16493 -19.72581,11.52943 -28.14229,11.52943 -8.76237,0 -14.67382,-4.52792 -14.67382,-11.2674 0,-2.861394 0.3354,-11.85435 12.7767,-13.447508 12.44131,-1.593158 30.01845,-3.815194 30.01845,-3.815194 z"
         id="path53"
         inkscape:connector-curvature="0"
         style="fill:#cb2026;stroke-width:1.04813015" />
      <path
         class="cls-1"
         d="m 958.66174,68.843025 c -16.77008,-2.945246 -25.05031,-4.496478 -25.05031,-12.388898 0,-4.685142 2.22204,-10.879591 20.35469,-10.879591 a 66.420006,66.420006 0 0 1 31.96797,8.21734 l 0.70225,0.366846 a 0.66032198,0.66032198 0 0 0 0.86994,-0.251551 l 9.72665,-16.895858 a 0.64984068,0.64984068 0 0 0 -0.28299,-0.911873 l -0.81754,-0.39829 c -11.73906,-5.39787 -22.99598,-9.852423 -42.03002,-9.852423 -29.10658,0 -45.14297,11.235955 -45.14297,31.632568 0,23.205601 21.57052,28.739728 41.77847,32.093744 17.8811,2.966208 25.07127,5.481721 25.07127,13.374141 0,7.19017 -6.92814,10.68045 -21.72774,10.68045 -13.62569,0 -27.49245,-5.78568 -36.77888,-10.64901 l -0.58695,-0.28299 a 0.66032198,0.66032198 0 0 0 -0.85947,0.27251 l -9.65328,17.06356 a 0.66032198,0.66032198 0 0 0 0.25155,0.90139 l 0.57647,0.31444 c 15.19789,7.87146 31.44391,12.03254 47.05056,12.03254 30.46915,0 45.91859,-10.7643 45.91859,-32.0099 0.01,-23.153193 -20.43854,-28.760689 -41.33826,-32.429145 z"
         id="path55"
         inkscape:connector-curvature="0"
         style="fill:#cb2026;stroke-width:1.04813015" />
      <path
         class="cls-1"
         d="m 691.29423,25.95354 c -11.83339,0 -21.83255,3.909526 -31.44391,12.305048 v -9.024401 a 0.64984068,0.64984068 0 0 0 -0.64984,-0.64984 h -24.90357 a 0.64984068,0.64984068 0 0 0 -0.64984,0.660322 V 173.29967 a 0.64984068,0.64984068 0 0 0 0.66032,0.66033 h 24.86165 a 0.64984068,0.64984068 0 0 0 0.66032,-0.64984 v -51.88245 c 9.15018,7.60943 20.60624,11.96965 31.44391,11.96965 27.79641,0 47.16585,-22.0841 47.16585,-53.716669 0.021,-30.133742 -20.70057,-53.727151 -47.14489,-53.727151 z m -6.55082,85.16057 c -9.09776,0 -16.77008,-4.28685 -24.92453,-13.898202 V 61.2336 c 8.38504,-9.003437 16.10976,-13.007295 24.92453,-13.007295 16.71768,0 27.51342,12.346973 27.51342,31.443904 0,18.803455 -11.05777,31.443901 -27.51342,31.443901 z"
         id="path57"
         inkscape:connector-curvature="0"
         style="fill:#cb2026;stroke-width:1.04813015" />
      <rect
         class="cls-1"
         x="752.6098"
         y="-5.4903636"
         width="26.203253"
         height="136.25691"
         rx="0.66032195"
         ry="0.66032195"
         id="rect59"
         style="fill:#cb2026;stroke-width:1.04813015" />
      <path
         class="cls-1"
         d="m 885.66996,103.11688 a 0.66032198,0.66032198 0 0 0 -0.88043,-0.25155 l -0.84898,0.46118 c -8.47938,4.45455 -16.13073,8.95103 -32.19856,8.95103 -17.43041,0 -29.26379,-9.69521 -31.63257,-25.930742 h 73.81981 a 0.64984068,0.64984068 0 0 0 0.66032,-0.64984 v -7.137767 c 0,-32.492034 -19.40089,-52.605651 -50.63517,-52.605651 -29.92411,0 -50.83431,22.409022 -50.83431,54.502767 0,31.664013 22.60817,52.941053 56.25314,52.941053 a 85.632232,85.632232 0 0 0 45.3526,-12.29457 l 0.44021,-0.28299 a 0.66032198,0.66032198 0 0 0 0.20963,-0.88043 z M 844.19545,47.178175 c 13.62569,0 22.01073,7.08536 24.25373,20.501426 H 820.2352 c 2.30588,-13.237884 10.8167,-20.501426 23.96025,-20.501426 z"
         id="path61"
         inkscape:connector-curvature="0"
         style="fill:#cb2026;stroke-width:1.04813015" />
    </g>
  </g>
</svg>
